<?xml version="1.0" encoding="utf-8"?>
<!-- Generator: Adobe Illustrator 28.0.0, SVG Export Plug-In . SVG Version: 6.00 Build 0)  -->
<svg version="1.1" id="Layer_1" xmlns="http://www.w3.org/2000/svg" xmlns:xlink="http://www.w3.org/1999/xlink" x="0px" y="0px"
	 viewBox="0 0 1003.79 226.84" style="enable-background:new 0 0 1003.79 226.84;" xml:space="preserve">
<style type="text/css">
	.st0{fill:#3D3DF0;}
	.st1{fill:#247EE5;}
	.st2{fill:#715AF8;}
	.st3{fill:#765CF9;}
	.st4{fill:#6755F7;}
	.st5{fill:#6D58F7;}
	.st6{fill:#6051F6;}
	.st7{fill:#6152F6;}
	.st8{fill:#6C57F7;}
	.st9{fill:#5A4FF5;}
	.st10{fill:#544CF4;}
	.st11{fill:#4745F2;}
	.st12{fill:#5049F3;}
	.st13{fill:#4D48F3;}
	.st14{fill:#574DF4;}
	.st15{fill:#514AF4;}
	.st16{fill:#4846F3;}
	.st17{fill:#278BD7;}
	.st18{fill:#4444F2;}
	.st19{fill:#4243F2;}
	.st20{fill:#4142F1;}
	.st21{fill:#2689D8;}
	.st22{fill:#2882DC;}
	.st23{fill:#2784DB;}
	.st24{fill:#2589DA;}
	.st25{fill:#2C84E2;}
	.st26{fill:#785AF8;}
	.st27{fill:#3045ED;}
	.st28{fill:#2E45EC;}
	.st29{fill:#3345EE;}
	.st30{fill:#3444EE;}
	.st31{fill:#3643EE;}
	.st32{fill:#3C44F0;}
	.st33{fill:#3A44EF;}
	.st34{fill:#3F44F1;}
	.st35{fill:#3845EF;}
	.st36{fill:#2689D7;}
	.st37{fill:#4045F1;}
	.st38{fill:#364BEE;}
	.st39{fill:#3748EE;}
	.st40{fill:#3354EF;}
	.st41{fill:#3452EF;}
	.st42{fill:#3551EF;}
	.st43{fill:#3356EF;}
	.st44{fill:#2F5FF0;}
	.st45{fill:#315CEF;}
	.st46{fill:#305EF0;}
	.st47{fill:#3158EF;}
	.st48{fill:#3257EF;}
	.st49{fill:#2E67F0;}
	.st50{fill:#FEFEFE;}
	.st51{fill:#3772FF;}
</style>
<g>
	<g>
		<path class="st0" d="M0.06,113.38C0.03,85.54,9.15,61.03,27.12,39.86C42.08,22.24,60.77,10.21,83.1,4.24
			c29.78-7.97,58.47-4.8,85.39,10.35c27.44,15.43,45.37,38.64,53.99,68.93c2.77,9.73,4.13,19.71,3.88,29.86
			c-2.72,1.38-5.52,0.97-8.33,0.34c-1.14-0.93-0.92-2.34-1.28-3.55c-0.36-4.53-0.56-9.09-1.51-13.56c-0.4-3.25-1.29-6.4-2.11-9.57
			c-0.84-3.25-1.82-6.46-3.17-9.54c-1.51-3.55-2.69-7.25-4.75-10.55c-2.38-4.85-5.34-9.36-8.47-13.75
			c-3.62-4.63-7.13-9.35-11.68-13.14c-3.93-3.59-7.76-7.29-12.3-10.15c-5.56-4.02-11.47-7.38-17.84-9.96
			c-7.75-3-15.51-5.91-23.77-7.3c-19.57-3.29-38.54-1.22-56.95,6.12c-0.9,0.36-1.81,0.7-2.72,1.05
			c-6.52,2.84-12.64,6.39-18.44,10.51c-4.4,2.96-8.36,6.47-12.25,10.06c-4.12,3.9-7.67,8.29-11.1,12.79
			c-3.15,4.37-6.05,8.9-8.52,13.69c-2.35,4.26-4.04,8.8-5.78,13.32c-1.55,4.3-2.68,8.72-3.66,13.17c-0.77,3.31-1.23,6.67-1.57,10.06
			c-0.54,1.73-0.13,3.5-0.26,5.25c-0.13,1.74-0.07,3.54-1.38,4.96C5.67,114.42,2.83,114.76,0.06,113.38z"/>
		<path class="st1" d="M217.83,113.38c2.84,0,5.69,0,8.53,0c0.41,14.42-2.2,28.36-7.74,41.57c-15.83,37.76-43.83,61.52-83.96,69.67
			C74.99,236.74,16.15,197.99,2.71,138.57c-1.88-8.3-2.98-16.67-2.65-25.19c2.84,0,5.69,0,8.53,0c0.24,0.2,0.42,0.46,0.53,0.75
			c0.77,4.19,0.85,8.45,1.28,12.68c-0.03,1.02,0.32,2.01,0.21,3.03c-0.61,3.98,1.07,7.65,1.6,11.48
			c4.11,17.09,11.98,32.18,23.6,45.4c9.13,10.39,19.93,18.54,32.25,24.62c12,5.91,24.72,9.52,38.16,10.28
			c0.44,0.02,0.88,0.09,1.31,0.18c1.37,0.4,2.77,0.24,4.16,0.23c1-0.01,2.01,0,3.01-0.01c1.54,0.02,3.08,0.19,4.6-0.2
			c8.07-0.49,15.93-2.12,23.65-4.42c15.35-4.56,28.86-12.4,40.49-23.38c12.2-11.53,21.36-25.13,27.16-40.93
			c0.09-0.25,0.22-0.48,0.34-0.72c1.21-3.61,2.51-7.19,3.23-10.95c0.81-3.7,2.09-7.33,1.61-11.21c0.06-2.53,0.45-5.04,0.7-7.55
			C216.55,119.5,216.32,116.32,217.83,113.38z"/>
		<path class="st2" d="M52.66,30c5.51-4.41,11.76-7.56,18.07-10.59c1.92,0.47,3.87,0.17,5.8,0.17c24.73,0.03,49.46,0.03,74.19-0.01
			c1.65,0,3.33,0.51,4.97-0.16c6.09,2.94,12.12,5.96,17.53,10.08c0.58,1.46-0.45,1.88-1.49,2.2c-0.93,0.29-1.91,0.23-2.88,0.23
			c-8.35-0.01-16.69,0.05-25.04-0.04c-0.88-0.01-1.75,0.03-2.61,0.28c-1.08,0.19-2.11-0.08-3.13-0.38
			c-8.89-2.61-17.94-3.91-27.23-3.66c-7.93,0.22-15.64,1.64-23.21,3.9c-1.27,0.38-2.52,0.87-3.89,0.6c-3.6-0.39-7.22-0.1-10.82-0.15
			c-5.73-0.07-11.46,0.08-17.19-0.08C54.29,32.35,52.29,32.57,52.66,30z"/>
		<path class="st3" d="M155.69,19.41c-0.51,1.11-1.5,1.05-2.49,1.05c-26.66,0-53.32,0-79.97,0c-0.98,0-1.98,0.07-2.49-1.04
			c8.47-3.79,17.33-6.44,26.47-7.8c9.48-1.42,19.01-1.57,28.61-0.41c10.07,1.21,19.56,4.1,28.85,7.94
			C154.99,19.27,155.35,19.32,155.69,19.41z"/>
		<path class="st4" d="M185.43,39.59c4.62,3.79,8.19,8.49,11.69,13.26c-0.56,1.73-2.07,1.29-3.26,1.32
			c-5.71,0.12-11.41-0.06-17.12,0.13c-1.28,0.19-2.16-0.54-2.99-1.34c-3.69-3.51-7.63-6.71-11.76-9.69c-0.87-0.63-2.45-1.2-1.1-2.81
			c1.29-0.81,2.73-0.62,4.14-0.64C171.82,39.69,178.63,40.08,185.43,39.59z"/>
		<path class="st4" d="M29.3,52.85c3.34-4.58,6.79-9.06,11.15-12.75c7.37-0.57,14.74-0.26,22.11-0.16c0.8,0.01,1.54,0.32,2.15,0.88
			c0.98,1.32,0.05,2.16-0.87,2.82c-4.05,2.92-7.81,6.19-11.46,9.58c-0.73,0.68-1.55,1.15-2.6,0.98c-5.74,0.02-11.47,0.05-17.2-0.03
			C31.39,54.15,29.87,54.58,29.3,52.85z"/>
		<path class="st5" d="M185.43,39.59c-0.65,1.35-1.89,1.04-3,1.04c-6.22,0.02-12.45,0.01-18.67,0.01c-1.14,0-2.29-0.09-3.32,0.55
			c-0.84,0.62-1.51,0.05-2.17-0.34c-5.08-3.02-10.36-5.64-15.89-7.76c-0.68-0.26-1.63-0.36-1.59-1.46c1.04-0.65,2.2-0.55,3.35-0.55
			c8.76,0,17.52,0.01,26.28,0c1.22,0,2.61,0.26,2.8-1.58C177.74,32.31,181.54,36.01,185.43,39.59z"/>
		<path class="st6" d="M29.3,52.85c0.78,0.86,1.81,0.51,2.74,0.51c5.27,0.03,10.55,0,15.82,0.03c0.92,0.01,1.96-0.36,2.7,0.58
			c0.34,1.23-0.44,2.02-1.17,2.76c-2.72,2.77-4.99,5.9-7.11,9.14c-0.77,1.18-1.53,2.42-3.23,2.35c-5-0.43-10-0.08-15-0.25
			c-1.19-0.04-2.7,0.41-3.25-1.32C22.97,61.64,25.99,57.16,29.3,52.85z"/>
		<path class="st7" d="M175.81,53.93c0.95-0.57,1.99-0.57,3.05-0.56c5.17,0.01,10.35,0.02,15.52-0.01c0.92-0.01,1.95,0.35,2.73-0.51
			c3.34,4.29,6.29,8.82,8.5,13.8c-0.26,1.47-1.51,1.3-2.46,1.31c-5.42,0.06-10.85,0.21-16.26-0.07c-1.04-0.11-1.81-0.67-2.38-1.5
			c-2.42-3.49-4.89-6.94-7.76-10.09C176.18,55.67,175.59,54.93,175.81,53.93z"/>
		<path class="st8" d="M64.91,41.77c-0.91-1.26-2.26-1.14-3.58-1.14c-6.05,0-12.1,0.02-18.15-0.01c-0.92,0-1.95,0.35-2.73-0.52
			c3.67-3.85,7.72-7.24,12.21-10.1c0.18,1.82,1.55,1.6,2.77,1.6c8.62,0,17.24-0.01,25.85,0.02c0.92,0,1.96-0.36,2.72,0.54
			c-0.05,1.32-1.25,1.34-2.05,1.69c-4.83,2.13-9.6,4.37-14.09,7.16C66.97,41.57,66.05,42.15,64.91,41.77z"/>
		<path class="st9" d="M20.8,66.65c0.77,0.86,1.8,0.51,2.72,0.52c4.37,0.04,8.74,0.05,13.12-0.01c1.17-0.02,2.22,0.37,3.33,0.57
			c0.57,0.83,0.03,1.51-0.33,2.19c-1.77,3.34-3.43,6.73-5.09,10.13c-0.47,0.97-0.92,1.94-2.22,1.97c-4.92-0.39-9.85-0.04-14.77-0.27
			c-1.08-0.05-2.89,0.42-2.6-1.82C16.49,75.32,18.08,70.74,20.8,66.65z"/>
		<path class="st10" d="M14.96,79.93c0.25,1.47,1.43,1.04,2.31,1.05c3.78,0.04,7.57,0.05,11.35,0c1.51-0.02,2.97,0.1,4.41,0.55
			c0.23,0.29,0.4,0.62,0.31,0.97c-1.07,3.92-2.18,7.82-3.77,11.57c-0.11,0.26-0.38,0.34-0.63,0.45c-4.82,0.08-9.63,0.04-14.44-0.01
			c-1.23-0.01-2.48-0.1-3.26-1.3C11.92,88.62,13.08,84.17,14.96,79.93z"/>
		<path class="st11" d="M217.83,113.38c-0.19,3.19-0.38,6.38-0.57,9.57c-0.37,0.72-1,0.95-1.76,0.92
			c-5.21-0.18-10.42-0.28-15.63,0.15c-0.45,0.04-0.87-0.15-1.24-0.4c-0.79-1-0.57-2.13-0.4-3.24c0.35-2.33,0.1-4.67,0.24-7.01
			c-0.01-1.21-0.12-2.43,0.81-3.42c1.03-0.66,2.2-0.6,3.34-0.61c3.72-0.02,7.43-0.02,11.15,0c1.23,0.01,2.5-0.07,3.52,0.84
			C218.26,111.13,217.66,112.32,217.83,113.38z"/>
		<path class="st12" d="M11.24,93.2c4.77,1.1,9.62,0.29,14.43,0.53c1.22,0.06,2.47-0.2,3.59,0.53c1.04,2.37-0.32,4.59-0.44,6.89
			c-0.06,1.03-0.35,2.06-0.67,3.07c-0.41,1.68-1.48,2.51-3.21,2.53c-4.14,0.05-8.27,0.15-12.4-0.05c-2.67-0.13-3.19-0.87-2.88-3.4
			C9.62,99.84,10.07,96.47,11.24,93.2z"/>
		<path class="st13" d="M217.3,110.2c-6.01,0-12.02,0-18.03,0c-1.42-3.82-2.08-7.72-1.24-11.78c0.97-0.77,2.14-0.68,3.26-0.69
			c2.89-0.03,5.77-0.07,8.66,0.01c2.06,0.06,4-0.21,5.76-1.35C217.19,100.88,217.32,105.53,217.3,110.2z"/>
		<path class="st9" d="M185.98,67.18c5.64,0,11.27,0.02,16.91-0.01c0.93-0.01,1.96,0.35,2.74-0.52c2.33,3.21,3.49,6.95,4.78,10.62
			c-0.59,1.27-1.79,1.31-2.91,1.31c-4.98,0.02-9.96,0.2-14.94-0.09c-0.34-0.07-0.77-0.09-0.97-0.35
			C189.11,74.8,186.86,71.33,185.98,67.18z"/>
		<path class="st14" d="M191.76,77.82c5.19,0,10.38-0.01,15.57-0.01c1.06,0,2.12,0.05,3.07-0.54c1.68,2.98,2.64,6.2,3.18,9.56
			c0.4,1.97-1.14,2.22-2.35,2.26c-5.06,0.2-10.12,0.44-15.17-0.14c-0.82-0.29-1.26-0.96-1.53-1.71c-0.88-2.4-1.87-4.76-2.76-7.16
			C191.5,79.35,191.21,78.57,191.76,77.82z"/>
		<path class="st15" d="M195.58,88.42c4.94,0,9.88,0.02,14.82-0.01c1.29-0.01,2.75,0.19,3.19-1.58c1.19,3.08,2.14,6.21,2.12,9.56
			c-0.26,1.8-1.49,2.15-3.06,2.14c-4.84-0.03-9.68,0-14.51,0c-0.09-0.01-0.23,0.01-0.25-0.03
			C196.22,95.35,195.32,92.01,195.58,88.42z"/>
		<path class="st16" d="M9.65,103.29c-0.24,2.02,0.89,2.66,2.67,2.66c4.32,0,8.64-0.14,12.95,0.07c1.88,0.09,1.72-1.34,2.39-2.19
			c0.83,0.75,0.81,1.74,0.64,2.69c-0.41,2.26-0.27,4.54-0.37,6.82c0,1.01,0.02,2.02-0.73,2.84c-5.42,0.37-10.84,0.12-16.26,0.09
			c-1.53-0.01-2.13-0.93-2.28-2.31c-0.02-0.19-0.05-0.38-0.07-0.56C9.62,110.09,8.49,106.57,9.65,103.29z"/>
		<path class="st17" d="M114.81,222.77c-1.06,0-2.13,0-3.19,0c-1.35-0.73-2.9,0.17-4.25-0.52c-11.98-0.22-23.3-3.35-34.28-7.88
			c-13.15-5.42-24.64-13.41-34.51-23.56c-13.1-13.48-21.92-29.49-26.71-47.69c-0.13-0.5-0.07-1.05-0.1-1.58
			c-0.15-0.63,0.19-0.66,0.66-0.56c1.49,1.85,1.45,4.29,2.44,6.33c1.14,3.47,2.23,6.97,3.8,10.28c1.2,3.22,3.11,6.07,4.65,9.11
			c1.81,3.09,3.68,6.15,5.84,9.01c3.04,4.16,6.24,8.18,10.02,11.7c4.21,4.53,8.99,8.41,13.96,12.07c5.92,4.11,12.11,7.72,18.77,10.5
			c9.92,4.39,20.33,6.86,31.08,8.04c0.96,0.33,1.95,0.35,2.95,0.29c1.18,0,2.36-0.01,3.53,0.22c2.47,0.53,4.95,0.51,7.42,0.01
			c1.17-0.24,2.35-0.22,3.53-0.23c1,0.06,1.99,0.05,2.95-0.28c10.86-1.21,21.33-3.88,31.33-8.31c7.87-3.23,14.99-7.74,21.81-12.78
			c4.9-3.92,9.67-7.96,13.73-12.78c3.46-4.01,6.91-8.03,9.69-12.57c2.22-3.51,4.43-7.03,6.2-10.81c1.16-2.25,2.06-4.61,3.08-6.91
			c0.42-0.94,0.66-2.01,1.82-2.41c0.74,0.2,0.82,0.62,0.43,1.22c-4.35,12.17-10.64,23.29-19.1,33c-7.95,9.12-17,17.03-27.64,23.11
			c-11.49,6.56-23.81,10.52-36.72,12.77c-2.74,0.48-5.56,1-8.41,0.68C118.05,222.93,116.34,222.05,114.81,222.77z"/>
		<path class="st18" d="M8.66,113.95c0.54,1.27,1.47,1.64,2.86,1.6c4.19-0.11,8.39-0.03,12.59-0.04c1.05,0,2.11-0.06,3.05,0.54
			c1.24,3.66,1.78,7.39,1.14,11.25c-2.25,0.98-4.65,0.68-6.99,0.71c-2.89,0.04-5.78,0.03-8.67,0c-1.05-0.01-2.12-0.01-2.96-0.81
			C9.35,122.77,9,118.36,8.66,113.95z"/>
		<path class="st19" d="M198.73,123.47c5.93-0.81,11.87-0.73,17.81-0.22c0.23,0.02,0.48-0.2,0.72-0.3
			c-0.33,2.48-0.66,4.96-0.98,7.45c0.38,1.2,0.4,2.31-0.83,3.08c-6.02,0.6-12.05,0.74-18.07-0.08c-0.4-0.24-0.71-0.63-0.66-1.07
			C197.05,129.3,197.01,126.19,198.73,123.47z"/>
		<path class="st20" d="M9.69,127.19c5.85-0.2,11.72,0.43,17.56-0.35c0.3-0.04,0.65,0.23,0.97,0.35c1.54,3.08,2.79,6.22,1.99,9.78
			c-3.96,1.14-8.01,0.45-12.02,0.55c-2.25,0.05-4.56,0.45-6.76-0.46c-1.23-2.25-1.7-4.64-1.31-7.18
			C9.98,128.98,9.84,128.08,9.69,127.19z"/>
		<path class="st21" d="M211.46,152.68c-0.01-0.43-0.1-0.83-0.51-1.06c-0.87-1.54,0.36-2.85,0.48-4.29
			c0.95-2.07,1.32-4.38,2.56-6.33c0.47-0.13,0.81-0.1,0.66,0.53C214.3,145.45,212.76,149.03,211.46,152.68z"/>
		<path class="st22" d="M214.65,141.53c-0.16-0.18-0.33-0.35-0.49-0.53c-0.56-2.87,0.42-5.43,1.55-7.97
			c0.52-0.81,0.55-1.72,0.57-2.63c1.19,3.02-0.52,5.8-0.79,8.7C215.41,139.87,215.46,140.91,214.65,141.53z"/>
		<path class="st23" d="M10.13,129.88c0.39,2.29,0.77,4.58,1.16,6.87c1.17,1.22,1.53,2.63,0.98,4.25c-0.16,0.18-0.33,0.35-0.49,0.53
			C10.83,137.7,9.14,133.98,10.13,129.88z"/>
		<path class="st24" d="M114.81,222.77c1.5-1.06,3.19-0.3,4.78-0.52C118.09,223.3,116.39,222.55,114.81,222.77z"/>
		<path class="st24" d="M107.36,222.25c1.41,0.22,2.94-0.53,4.25,0.52C110.21,222.55,108.67,223.3,107.36,222.25z"/>
		<path class="st25" d="M27.18,113.37c-0.32-3.21,0.47-6.36,0.49-9.55c0.53-3.19,1.06-6.37,1.59-9.56c0.73-4.4,2.65-8.45,3.78-12.74
			c2.31-4.6,4.62-9.2,6.93-13.8c3.53-4.58,7.06-9.17,10.6-13.75c4.51-4.38,9.49-8.22,14.34-12.2c6.19-3.55,12.53-6.8,19.1-9.61
			c5.37-1.33,10.63-2.99,16.14-3.85c13.12-2.04,25.95-0.93,38.61,2.83c0.67,0.2,1.36,0.32,2.04,0.47c6.8,2.68,13.33,5.91,19.65,9.56
			c5.3,4.03,10.59,8.1,15.37,12.76c3.51,4.32,6.99,8.67,10.16,13.25c1.93,3.55,3.86,7.09,5.79,10.64c1.27,3.53,2.54,7.07,3.82,10.6
			c0.85,3.37,1.7,6.74,2.55,10.11c0.38,3.89,0.76,7.78,1.14,11.67c-0.01,1.06-0.02,2.12-0.03,3.17c-2.23,1.3-4.53,1.05-6.85,0.28
			c-1.27-1.49-0.74-3.3-0.84-4.99c-0.07-1.12-0.05-2.25-0.24-3.36c-0.93-9.47-3.55-18.47-7.75-27
			c-5.09-9.95-11.64-18.73-20.58-25.59c-3.79-2.59-7.47-5.32-11.43-7.68c-10.98-6.55-22.87-9.55-35.55-10.06
			c-13.74-0.55-26.69,2.34-38.89,8.61c-4.89,2.51-9.41,5.61-13.72,9.01c-7.01,5.53-12.64,12.27-17.29,19.86
			c-4.51,7.25-7.62,15.06-9.5,23.38c-0.98,5.01-1.88,10.01-1.78,15.14c0.02,0.96-0.03,1.95-0.81,2.7
			C31.71,114.41,29.41,114.67,27.18,113.37z"/>
		<path class="st26" d="M27.18,113.37c2.3,0.02,4.6,0.03,6.89,0.05c1.23,1.44,0.66,3.18,0.79,4.8c0.09,1.13-0.15,2.28,0.23,3.39
			c0.6,5.74,1.84,11.35,3.6,16.85c2.84,8.86,7.37,16.79,13.17,24.03c5.84,7.58,13.02,13.61,21.23,18.46
			c9.55,5.69,19.86,9.17,30.89,10.4c12.38,1.38,24.47,0.18,36.18-4.33c4.54-1.75,8.88-3.91,13.15-6.22
			c6.53-3.86,12.28-8.68,17.49-14.15c5.69-5.54,9.83-12.15,13.3-19.23c3.88-8.21,6.36-16.81,7.22-25.86
			c0.32-1.73,0.2-3.47,0.25-5.21c0.03-1.03-0.08-2.12,0.78-2.93c2.3-0.02,4.6-0.03,6.89-0.05c0.06,3.38,0.03,6.76-0.52,10.11
			c-0.53,3.19-1.06,6.37-1.6,9.56c0.54,2.12-0.47,3.99-1.01,5.91c-0.74,2.64-1.68,5.22-2.74,7.76c-2.18,4.83-4.56,9.55-7.46,13.99
			c-2.61,3.81-5.37,7.5-8.45,10.95c-3.98,4.8-8.87,8.58-13.8,12.33c-8.12,5.81-17.05,9.98-26.57,12.92
			c-12.76,3.67-25.69,4.34-38.77,2.09c-7.25-1.57-14.44-3.39-21.15-6.66c-3.25-1.58-6.51-3.16-9.58-5.09
			c-5.04-3.17-9.66-6.9-14.15-10.8c-3.04-3.09-6.01-6.24-8.76-9.6c-1.91-2.9-3.95-5.72-5.8-8.67c-1.92-3.51-3.92-6.97-5.49-10.65
			c-1.14-2.62-2.1-5.31-2.94-8.04c-0.27-0.88-0.82-1.78-0.12-2.71c-0.71-3.18-1.41-6.37-2.12-9.55c-0.46-3.71-1.12-7.4-1.06-11.15
			C27.17,115.15,27.17,114.26,27.18,113.37z"/>
		<path class="st27" d="M97.83,198.34c5.09,0.3,10.13,1.19,15.27,1.13c7.71-0.09,15.27-0.93,22.69-3.06
			c0.58-0.17,1.22-0.14,1.83-0.2c1-0.45,2.07-0.29,3.11-0.29c10.74-0.04,21.47-0.03,32.21,0.01c1.44,0,3.07-0.3,3.99,1.35
			c-6.71,5.18-13.76,9.77-21.76,12.75c-1.46,0.45-2.96,0.32-4.45,0.32c-25.09,0-50.18-0.01-75.27,0.04c-1.39,0-2.81-0.51-4.18,0.14
			c-6.48-3.04-12.77-6.41-18.59-10.61c0.25-1.67,1.64-1.66,2.82-1.8c1.67-0.2,3.35-0.09,5.03-0.09c12.27,0.02,24.54-0.07,36.81,0.1
			C97.51,198.13,97.67,198.26,97.83,198.34z"/>
		<path class="st28" d="M71.27,210.52c0.53-1.1,1.53-1.03,2.51-1.03c26.09,0,52.19,0,78.28,0.02c1.04,0,2.07,0.33,3.11,0.51
			c-5.58,3.13-11.71,4.76-17.84,6.3c-4.59,1.15-9.25,2.15-14.03,2.21c-0.81,0.59-1.86-0.11-2.67,0.5c-1.24,0.01-2.48,0.02-3.71,0.03
			c-2.47,0.4-4.95,0.4-7.42,0c-1.24-0.01-2.48-0.02-3.71-0.03c-0.81-0.61-1.86,0.09-2.67-0.5c-10.32-0.6-20.13-3.29-29.67-7.14
			C72.73,211.1,72,210.82,71.27,210.52z"/>
		<path class="st29" d="M97.83,198.34c-2.94,0.74-5.94,0.54-8.93,0.54c-10.85,0.01-21.71,0-32.56,0c-1.32,0-2.67-0.12-3.67,1.04
			c-4.9-3.73-9.86-7.39-13.83-12.18c0.4-0.95,1.25-1.26,2.14-1.26c8.86-0.05,17.72-0.44,26.57,0.18c6.5,3.27,12.85,6.9,19.92,8.89
			C90.92,196.51,94.38,197.41,97.83,198.34z"/>
		<path class="st30" d="M176.93,197.28c-1.04-0.65-2.2-0.53-3.35-0.53c-8.48,0-16.96,0-25.44,0c-3.52,0-7.05,0.16-10.53-0.54
			c3.87-1.84,8.04-2.89,11.9-4.79c4.57-2.24,9.01-4.65,13.13-7.64c0.27-0.19,0.65-0.22,0.98-0.32c4.03-0.63,8.09-0.18,12.14-0.27
			c3.7-0.08,7.41-0.06,11.11,0.01c1.4,0.02,2.87-0.05,3.81,1.34C186.67,189.39,181.92,193.47,176.93,197.28z"/>
		<path class="st31" d="M67.56,186.65c-1.04,0.66-2.2,0.55-3.35,0.55c-7.34,0-14.68,0-22.02,0c-1.15,0-2.31-0.12-3.35,0.54
			c-4.03-3.32-7.12-7.45-10.07-11.69c0.68-1.39,2.01-1.32,3.22-1.33c5.75-0.06,11.5-0.03,17.25-0.02c1.66,0,3.11,0.55,4.52,1.34
			C58.36,179.57,62.96,183.11,67.56,186.65z"/>
		<path class="st31" d="M190.69,184.54c-1.44-0.49-2.91-0.55-4.42-0.54c-6.52,0.03-13.04,0.01-19.57,0.02
			c-1.06,0-2.12,0.04-3.07-0.55c3.8-3.48,8.12-6.37,11.59-10.23c0.58-0.65,1.16-1.31,1.74-1.96c0.61-0.41,1.29-0.51,2.01-0.47
			c5.87,0.33,11.74,0.06,17.61,0.17c1.29,0.02,2.66-0.2,3.74,0.83c-1.99,4.06-5.08,7.3-7.88,10.77
			C191.89,183.25,191.28,183.88,190.69,184.54z"/>
		<path class="st32" d="M185.41,160.64c2.48-4.61,4.95-9.21,7.43-13.82c5.93-0.59,11.86-0.27,17.79-0.13
			c0.52,0.01,1.02,0.25,1.37,0.68c-0.35,1.42-0.71,2.83-1.06,4.25c-1.44,3.18-2.88,6.36-4.32,9.54c-4.03,0.71-8.1,0.18-12.15,0.31
			c-2.12,0.07-4.24,0.05-6.36-0.01C187.15,161.43,186.16,161.43,185.41,160.64z"/>
		<path class="st33" d="M185.41,160.64c6.05,0,12.1,0.01,18.16,0.01c1.05,0,2.11-0.08,3.06,0.51c-1.82,3.71-3.74,7.37-6.32,10.64
			c-5.44,0-10.88-0.01-16.32,0c-2.36,0-4.72,0.09-7.03-0.53C179.78,167.72,182.6,164.18,185.41,160.64z"/>
		<path class="st32" d="M34.06,147.37c1.78,3.54,3.55,7.08,5.33,10.62c-0.74,0.78-1.72,0.81-2.68,0.83
			c-5.17,0.06-10.34,0.03-15.52,0.02c-1.08,0-2.09-0.21-2.98-0.85c-1.73-3.37-2.96-6.92-3.83-10.6c0.73-0.8,1.72-0.83,2.69-0.84
			c4.66-0.06,9.33-0.03,13.99-0.02C32.15,146.53,33.16,146.76,34.06,147.37z"/>
		<path class="st34" d="M34.06,147.37c-6.56,0-13.12,0.01-19.68,0.01c-1.18-1.97-1.44-4.25-2.12-6.38
			c-0.33-1.42-0.65-2.84-0.98-4.25c6.35,0,12.71,0,19.06,0C31.58,140.29,32.82,143.83,34.06,147.37z"/>
		<path class="st35" d="M53.77,176.03c-7.28-1.01-14.61-0.31-21.91-0.51c-1.06-0.03-2.12-0.07-3.08,0.53
			c-2.37-2.74-4.15-5.86-5.85-9.02c0.74-0.78,1.72-0.8,2.68-0.81c6.04-0.11,12.07,0.09,18.11-0.12c0.53-0.02,1.04,0.1,1.5,0.4
			C48.07,169.67,50.92,172.85,53.77,176.03z"/>
		<path class="st33" d="M45.22,166.49c-2.91,0.95-5.91,0.46-8.87,0.51c-4.47,0.08-8.95,0.02-13.42,0.02
			c-1.77-2.91-3.53-5.82-4.72-9.03c7.06,0,14.12,0,21.18,0C41.34,160.82,43.28,163.65,45.22,166.49z"/>
		<path class="st36" d="M109.5,219.07c2.47,0,4.95,0,7.42,0C114.45,219.91,111.97,219.91,109.5,219.07z"/>
		<path class="st1" d="M103.12,218.54c0.9,0.09,1.9-0.34,2.67,0.5C104.89,218.94,103.88,219.4,103.12,218.54z"/>
		<path class="st1" d="M120.63,219.04c0.76-0.84,1.76-0.41,2.67-0.5C122.54,219.4,121.54,218.94,120.63,219.04z"/>
		<path class="st37" d="M212.01,147.37c-5.37,0-10.73-0.01-16.1,0c-1.06,0-2.12,0.04-3.06-0.55c1.43-4.6,2.86-9.19,4.28-13.79
			c6.19,0,12.39,0,18.58,0c0.01,2.76-0.99,5.32-1.55,7.97C213.78,143.24,213.04,145.35,212.01,147.37z"/>
		<path class="st38" d="M45.76,71.96c4.42-7.63,10.09-14.17,16.99-19.65c1.93,0.33,3.87,0.2,5.8,0.2
			c31.36,0.02,62.71-0.01,94.07,0.03c0.36,0,0.7-0.05,1.03-0.2c8.33,6.42,14.43,14.69,19.57,23.74c0.3,0.52,0.41,1.14,0.61,1.72
			c0,1.47-1.12,1.64-2.17,1.8c-1.23,0.19-2.47,0.11-3.71,0.11c-10.43,0-20.85-0.01-31.28,0.02c-1.57,0-3.18-0.2-4.71,0.42
			c-0.92,0.16-1.77-0.14-2.54-0.57c-4.09-2.28-8.54-3.29-13.12-4c-3.86-0.59-4.32-1.24-4.36-5.25c-0.03-3.27,0.03-6.54-0.02-9.82
			c-0.04-2.77-0.34-3.04-3.04-3.12c-0.62-0.02-1.24,0.03-1.86,0c-1.85-0.11-2.5,0.84-2.49,2.58c0.02,3.45,0.05,6.9-0.02,10.35
			c-0.07,3.43-0.63,3.97-4.06,4.06c-5.78,0.16-6.05-0.1-6.06-5.77c-0.01-2.83-0.01-5.66-0.01-8.49c0.01-1.88-0.82-2.64-2.71-2.74
			c-6.2-0.35-6.26-0.34-6.28,5.78c-0.01,2.74,0.05,5.48-0.05,8.22c-0.07,1.94-1.05,2.95-2.98,2.95c-6.01,0-12.02,0.32-18.03-0.19
			c-5.44-0.57-10.9-0.14-16.34-0.25c-2.99-0.06-5.98,0.08-8.97-0.07C47.72,73.74,46.15,73.84,45.76,71.96z"/>
		<path class="st39" d="M163.66,52.34c-0.45,1.73-1.88,1.01-2.87,1.01c-31.73,0.04-63.46,0.03-95.19,0.03
			c-0.62,0-1.24-0.01-1.85-0.03c-0.65-0.03-0.9-0.46-0.99-1.03c11.16-9.48,24.1-15.29,38.47-17.36c16.29-2.35,32.15-0.24,46.99,7.3
			C153.71,45.04,158.76,48.6,163.66,52.34z"/>
		<path class="st40" d="M34.6,121.9c-1.07-2.77-0.28-5.66-0.53-8.49c-0.1-6.13,0.18-12.21,2.13-18.09
			c14.82,0.46,29.64,0.09,44.45,0.21c0.97,0.01,1.94-0.03,2.91,0.04c2.68,0.18,3.24,0.71,3.29,3.39c0.09,5.29-0.03,10.59,0.06,15.88
			c-0.02,1.9,0.42,3.86-0.71,5.61c-1.35,0.91-2.88,0.68-4.36,0.68c-14.02,0.02-28.04,0.02-42.06,0
			C38.01,121.13,36.26,121.2,34.6,121.9z"/>
		<path class="st41" d="M141.9,79.89c0.37-1.61,1.68-1,2.61-1c12.11-0.04,24.22-0.02,36.33-0.03c1.11,0,2.37,0.31,3.01-1.06
			c3.56,5.88,5.39,12.38,6.88,19.01c0.6,2.66,1.22,5.32,1.09,8.08c-1,0.98-2.29,0.84-3.51,0.84c-12.92,0.02-25.84,0.02-38.76,0
			c-1.23,0-2.49,0.04-3.59-0.69c-0.96-0.78-0.7-1.72-0.29-2.64c3.49-7.86,2.4-14.97-3.43-21.32
			C141.94,80.75,141.7,80.38,141.9,79.89z"/>
		<path class="st42" d="M86.19,115.11c-0.02-4.94-0.04-9.88-0.07-14.82c-0.03-4.27,0.46-3.89-3.76-3.89
			c-14.3-0.01-28.59,0-42.89-0.02c-1.17,0-2.55,0.43-3.27-1.05c0.69-5.36,2.84-10.26,4.96-15.14c1.25-2.88,2.63-5.73,4.6-8.22
			c0.98,1.19,2.33,1.07,3.66,1.06c7.42,0,14.85-0.01,22.27,0.01c0.93,0,1.97-0.35,2.75,0.51c0.61,2.53,0.23,5.1,0.26,7.65
			c0.03,1.91,0.79,2.75,2.69,2.69c1.32-0.04,2.65-0.06,3.97,0.09c3.43,0.37,5.85,2.55,5.98,5.99c0.3,7.67,0.17,15.35,0.05,23.03
			C87.38,113.84,87.3,114.81,86.19,115.11z"/>
		<path class="st43" d="M145.49,104.31c1.13,0.67,2.38,0.57,3.61,0.57c14.24,0,28.48,0,42.72,0c1.11,2.78,0.24,5.69,0.53,8.53
			c-0.25,2.82,0.53,5.7-0.52,8.47c-0.78,0.69-1.74,0.82-2.72,0.82c-11.35-0.02-22.69,0.18-34.03-0.09
			c-1.05-0.14-1.81-0.67-2.14-1.71c-1.51-4.84-5.24-7.37-9.62-9.21c-0.57-0.24-1.17-0.42-1.71-0.72c-1.74-0.96-1.97-1.79-0.45-2.96
			C142.69,106.86,143.41,104.79,145.49,104.31z"/>
		<path class="st44" d="M171.16,167.05c-4.91,5.69-10.97,10.01-17.08,14.25c-23.98,0.85-47.98,0.15-71.96,0.37
			c-3.26,0.03-6.53,0.14-9.77-0.37c-7.57-4.54-14.17-10.21-19.9-16.91c-0.4-0.47-0.83-0.91-0.87-1.57c0.05-1.79,1.46-1.77,2.65-1.89
			c1.84-0.18,3.7-0.07,5.56-0.07c9.53,0,19.06-0.02,28.59,0.01c4.49,0.01,4.82,0.38,4.9,4.79c0.02,1.12-0.27,2.33,0.73,3.22
			c2.59,0.96,5.24,0.47,7.86,0.35c1.46-0.07,1.46-1.33,1.49-2.39c0.08-3.53-0.01-7.07,0.04-10.61c0.05-3.85,0.6-4.36,4.55-4.37
			c4.49-0.02,5.48,0.74,5.57,4.43c0.08,3.45,0.04,6.89,0.02,10.34c-0.01,1.85,0.69,2.87,2.64,2.73c1.91-0.14,3.89,0.45,5.72-0.53
			c0.55-0.54,0.62-1.22,0.71-1.94c0.35-2.87,0.74-3.32,3.65-3.34c13.88-0.08,27.75-0.09,41.63,0.01
			C170.7,163.58,171.17,164.22,171.16,167.05z"/>
		<path class="st45" d="M93.14,170.15c-1.33-1.83-0.55-3.9-0.58-5.85c-0.03-1.85-0.38-2.66-2.48-2.65
			c-11.93,0.09-23.86,0.05-35.78,0.04c-1.06,0-2.17-0.13-2.72,1.11c-3.57-3.37-5.81-7.68-8.19-11.86c-2.16-3.8-4.09-7.75-5.06-12.08
			c-0.51-1.28,0.46-1.5,1.3-1.73c0.85-0.24,1.75-0.19,2.63-0.19c12.69-0.01,25.37-0.02,38.06,0.02c1.53,0,3.25-0.32,4.28,1.36
			c0.18,1.14-0.69,1.36-1.46,1.67c-2.08,0.26-4.17,0.09-6.26,0.12c-1.04,0.02-1.93,0.16-2.13,1.41c-0.37,2.36-0.88,4.68-1.22,7.05
			c-0.28,1.98,0.39,2.77,2.37,2.76c3.44-0.03,6.88-0.03,10.32,0c7.28,0.07,7.63,0.42,7.63,7.58c0,2.73,0.02,5.47-0.01,8.2
			C93.82,168.18,93.88,169.26,93.14,170.15z"/>
		<path class="st46" d="M171.16,167.05c-0.46-2.69-2.3-2.76-4.56-2.74c-13.36,0.1-26.72,0.11-40.07-0.01
			c-2.49-0.02-3.61,0.55-3.27,3.19c0.11,0.87,0.46,1.98-0.6,2.66c-0.68-0.81-0.65-1.81-0.66-2.77c-0.02-3.89-0.05-7.78,0.01-11.67
			c0.04-3.09,0.51-3.63,3.58-4.2c3.13-0.58,6.27-1.07,9.43-1.49c3.54-0.47,6.93-1.38,9.98-3.32c0.75-0.48,1.57-0.82,2.49-0.84
			c10.52,0.32,21.04,0.05,31.56,0.14c1.06,0.01,2.13-0.06,3.18,0.11c1.06,0.17,2.17,0.35,2.17,1.82
			C181.17,155.12,176.93,161.61,171.16,167.05z"/>
		<path class="st47" d="M184.39,147.92c-0.64-1.37-1.89-1.07-3-1.07c-10.32-0.01-20.63-0.01-30.95,0c-1.15,0-2.3,0.05-3.34-0.57
			c-0.15-1.02,0.59-1.6,1.12-2.29c4.35-5.54,6.11-11.82,5.34-18.81c-0.12-1.13-0.4-2.29,0.48-3.28c12.6,0,25.19-0.01,37.79-0.01
			C191.21,131.09,188.73,139.77,184.39,147.92z"/>
		<path class="st48" d="M84.53,138.78c-0.58-1.05-1.57-0.97-2.55-0.97c-13.78,0-27.56,0-41.34,0.02c-0.89,0-2.06-0.42-2.31,1.06
			c-2.24-5.44-3.45-11.11-3.72-16.98c-0.1-2.06,1.42-1.61,2.57-1.61c13.76-0.02,27.52-0.01,41.28-0.01c2.56,0,5.12,0,7.67,0
			c0.17,0.2,0.42,0.36,0.45,0.63c0.66,5.33,0.56,10.67,0.03,15.99C86.52,137.91,85.96,138.98,84.53,138.78z"/>
		<path class="st49" d="M72.35,181.3c0.81-0.81,1.85-0.46,2.78-0.46c25.39-0.02,50.79-0.02,76.18,0c0.93,0,1.96-0.35,2.77,0.47
			c-5.24,2.71-10.5,5.34-16.08,7.32c-10.51,3.74-21.4,4.71-32.35,3.72C93.78,191.28,82.54,187.71,72.35,181.3z"/>
		<path class="st50" d="M84.53,138.78c1.48-0.63,1.58-1.98,1.59-3.28c0.04-5.07,0.01-10.15,0.01-15.22
			c0.02-1.73,0.04-3.45,0.06-5.18c0.68-3.59,0.3-7.22,0.39-10.83c0.11-4.6,0.12-9.2,0.06-13.8c-0.04-3.58-2.28-5.72-5.81-5.84
			c-2.19-0.08-5.04,0.95-6.4-0.4c-1.49-1.46-0.44-4.36-0.47-6.62c-0.02-1.35-0.53-2.82,0.49-4.07c6.1,0.03,12.2,0.03,18.3,0.13
			c1.53,0.03,1.96-0.52,1.94-1.99c-0.08-4.24,0.07-8.49-0.07-12.73c-0.06-1.92,0.61-2.52,2.42-2.32c2.6,0.29,5.95-1.12,7.63,0.63
			c1.55,1.62,0.37,4.9,0.46,7.44c0.08,2.3,0.07,4.6,0,6.9c-0.05,1.39,0.27,2.02,1.87,2.08c6.65,0.27,6.64,0.33,6.64-6.33
			c0-2.92,0.06-5.84-0.03-8.75c-0.05-1.51,0.48-2.06,1.98-1.98c1.76,0.1,3.54,0.12,5.3,0c1.72-0.12,2.07,0.67,2.05,2.2
			c-0.07,4.42,0.04,8.84-0.06,13.26c-0.04,1.72,0.63,2.35,2.25,2.51c5.96,0.58,11.6,2.18,16.77,5.28
			c7.29,6.87,8.47,14.91,3.59,24.42c-1.59,1.74-2.94,3.72-5.8,5.25c6.69,2.44,12.53,5.23,14.35,12.33
			c0.55,4.66,0.75,9.29-0.63,13.86c-1.22,4.04-3.28,7.56-6.31,10.52c-5.03,3.99-11.15,4.46-17.14,5.3
			c-7.03,0.98-6.99,0.92-7.06,8.06c-0.03,3.51,0.33,7.03-0.25,10.53c-2.65-0.02-5.29-0.13-7.93-0.03c-1.61,0.06-2.15-0.46-2.11-2.09
			c0.1-4.32-0.04-8.64,0.07-12.96c0.04-1.6-0.55-2.15-2.06-2.34c-6.48-0.81-6.47-0.85-6.47,5.72c0,3-0.11,6,0.04,8.99
			c0.1,2-0.38,2.85-2.59,2.7c-2.81-0.19-5.64-0.01-8.46,0.01c-0.62-5.01-0.22-10.03-0.22-15.05c0-1.93-0.52-2.53-2.48-2.67
			c-5.38-0.4-10.76-0.28-16.13-0.26c-1.91,0.01-2.19-0.61-1.83-2.32c0.61-2.87,1-5.79,1.49-8.69c0.2-1.13,0.8-1.52,2-1.52
			c2.36,0.01,4.75,0.3,7.1-0.19C83.74,139.62,84.03,138.97,84.53,138.78z"/>
		<path class="st48" d="M83.07,139.45c-2.17,0.88-4.43,0.3-6.65,0.41c-1.09,0.05-2.07,0.05-2.46,1.31c-0.22-1.43,0.52-1.8,1.81-1.77
			C78.2,139.45,80.64,139.43,83.07,139.45z"/>
		<path class="st48" d="M111.2,117.02c5.53-0.03,10.89,0.95,16.12,2.71c4.33,1.46,7.16,5.23,7.04,9.26
			c-0.11,4.06-2.87,7.33-7.33,8.7c-6.65,2.04-13.47,2.75-20.4,2.67c-1.19-0.01-2.03-0.09-2-1.66c0.13-6.19,0.22-12.37,0.2-18.56
			c-0.01-2.5,0.99-3.49,3.46-3.15C109.24,117.13,110.23,117.02,111.2,117.02z"/>
		<path class="st41" d="M105.13,96.42c0-2.83,0.05-5.65-0.02-8.48c-0.03-1.37,0.28-2.1,1.87-2.15c5.72-0.21,11.28,0.53,16.6,2.67
			c3.53,1.42,5.69,4.88,5.55,8.56c-0.14,3.71-2.5,6.99-6.12,8.17c-5.44,1.77-11.06,2.09-16.75,1.81c-1.31-0.07-1.6-0.66-1.58-1.84
			c0.06-2.91,0.02-5.82,0.02-8.73C104.84,96.42,104.99,96.42,105.13,96.42z"/>
	</g>
	<g>
		<path class="st51" d="M346.44,78.45c-5.03-4.28-10.34-7.49-15.94-9.63c-5.6-2.14-11.49-3.21-17.66-3.21
			c-11.95,0-21.67,3.83-29.16,11.5c-7.49,7.67-11.24,17.6-11.24,29.79c0,11.8,3.65,21.53,10.94,29.2
			c7.29,7.67,16.49,11.5,27.59,11.5c6.47,0,12.63-1.14,18.48-3.43c5.85-2.29,11.46-5.75,16.84-10.38v20.09
			c-4.78,3.44-9.98,6-15.61,7.69c-5.63,1.69-11.72,2.54-18.29,2.54c-8.36,0-16.09-1.37-23.19-4.11s-13.33-6.77-18.71-12.1
			c-5.33-5.23-9.42-11.39-12.28-18.48c-2.86-7.09-4.29-14.65-4.29-22.66c0-8.01,1.43-15.54,4.29-22.59
			c2.86-7.04,7.01-13.23,12.43-18.56c5.43-5.38,11.65-9.45,18.67-12.21c7.02-2.76,14.61-4.14,22.78-4.14
			c6.42,0,12.54,0.93,18.37,2.8c5.82,1.87,11.47,4.69,16.95,8.47L346.44,78.45z"/>
		<path class="st51" d="M361.9,125.86c0-5.18,0.98-10.07,2.95-14.67c1.97-4.6,4.79-8.7,8.48-12.28c3.63-3.53,7.81-6.25,12.54-8.14
			c4.73-1.89,9.68-2.84,14.86-2.84c5.33,0,10.34,0.95,15.05,2.84c4.7,1.89,8.92,4.68,12.66,8.36c3.73,3.63,6.57,7.74,8.51,12.32
			c1.94,4.58,2.91,9.38,2.91,14.41c0,5.23-0.96,10.13-2.88,14.71c-1.92,4.58-4.72,8.64-8.4,12.17c-3.88,3.73-8.19,6.56-12.92,8.48
			c-4.73,1.92-9.71,2.88-14.93,2.88c-5.13,0-10.06-0.96-14.79-2.88c-4.73-1.92-8.94-4.69-12.62-8.33c-3.73-3.68-6.57-7.81-8.51-12.4
			C362.87,135.92,361.9,131.04,361.9,125.86z M422.76,126.01c0-6.57-2.12-12.13-6.35-16.69c-4.23-4.55-9.41-6.83-15.53-6.83
			c-6.07,0-11.24,2.28-15.49,6.83S379,119.44,379,126.01s2.13,12.13,6.38,16.69c4.26,4.55,9.42,6.83,15.49,6.83
			c6.07,0,11.24-2.28,15.49-6.83C420.63,138.15,422.76,132.58,422.76,126.01z"/>
		<path class="st51" d="M455.62,59.78c0-2.74,1.01-5.1,3.02-7.09c2.02-1.99,4.42-2.99,7.21-2.99c2.89,0,5.29,0.96,7.21,2.88
			c1.92,1.92,2.88,4.32,2.88,7.21c0,2.89-0.97,5.31-2.91,7.28c-1.94,1.97-4.33,2.95-7.17,2.95c-2.79,0-5.19-1.01-7.21-3.02
			C456.62,64.97,455.62,62.57,455.62,59.78z M457.78,161.18V90.39h16.2v70.79H457.78z"/>
		<path class="st51" d="M497.13,161.18V90.39h15.23v11.57c3.24-4.88,7.04-8.44,11.42-10.68c4.38-2.24,9.71-3.36,15.98-3.36
			c5.28,0,9.77,0.83,13.48,2.5c3.71,1.67,6.61,4.14,8.7,7.43c1.24,1.94,2.14,4.21,2.69,6.79c0.55,2.59,0.82,7.12,0.82,13.59v42.94
			h-16.35v-36.37c0-9.31-1.13-15.49-3.4-18.56c-2.27-3.06-6.28-4.59-12.06-4.59c-3.78,0-7.16,0.7-10.12,2.09
			c-2.96,1.39-5.29,3.36-6.98,5.9c-1.19,1.69-2.03,3.87-2.5,6.53c-0.47,2.66-0.71,6.91-0.71,12.73v32.26H497.13z"/>
		<path class="st51" d="M575.39,51.86h17.55l20.68,55.18c1.34,3.63,2.48,6.82,3.4,9.56c0.92,2.74,1.73,5.3,2.43,7.69
			c1.74-5.77,3.56-11.42,5.45-16.95c0.25-0.7,0.42-1.17,0.52-1.42l21.95-58.39l23.15,59.51c1.09,2.89,2.13,5.78,3.1,8.66
			c0.97,2.89,1.88,5.8,2.73,8.74c0.5-2.24,1.17-4.7,2.02-7.39c0.85-2.69,1.94-5.87,3.29-9.56l20.54-55.63h17.7l-42.34,113.58
			l-24.94-62.35c-1.1-2.79-2.09-5.46-2.99-8.03c-0.9-2.56-1.69-4.99-2.39-7.28c-0.85,2.94-1.69,5.69-2.54,8.25
			c-0.85,2.56-1.72,5.02-2.61,7.36l-24.49,62.05L575.39,51.86z"/>
		<path class="st51" d="M797.24,161.18h-16.2V152c-2.89,4.08-6.26,7.12-10.12,9.11c-3.86,1.99-8.28,2.99-13.25,2.99
			c-10.01,0-17.88-3.42-23.63-10.27c-5.75-6.84-8.62-16.22-8.62-28.11c0-11.3,2.94-20.42,8.81-27.37c5.87-6.95,13.54-10.42,23-10.42
			c5.77,0,10.72,1.21,14.82,3.62c4.11,2.42,7.11,5.89,9,10.42V90.39h16.2V161.18z M781.49,125.56c0-7.32-1.71-13.02-5.12-17.1
			c-3.41-4.08-8.18-6.12-14.3-6.12s-10.94,2.1-14.45,6.31c-3.51,4.21-5.26,10.04-5.26,17.51c0,7.52,1.69,13.32,5.08,17.4
			c3.38,4.08,8.16,6.12,14.34,6.12c5.83,0,10.57-2.21,14.23-6.65C779.66,138.61,781.49,132.78,781.49,125.56z"/>
		<path class="st51" d="M823.45,161.18v-56.6h-12.4V90.39h12.4V63.59h16.2v26.81h12.4v14.19h-12.4v56.6H823.45z"/>
		<path class="st51" d="M918.88,110.56c-2.49-2.74-5.39-4.83-8.7-6.27c-3.31-1.44-6.88-2.17-10.72-2.17
			c-6.62,0-11.92,2.14-15.91,6.42c-3.98,4.28-5.97,9.96-5.97,17.03c0,7.37,2,13.16,6.01,17.36c4.01,4.21,9.55,6.31,16.62,6.31
			c3.93,0,7.44-0.73,10.53-2.2c3.09-1.47,5.8-3.7,8.14-6.68v18.67c-2.99,1.69-6.19,2.96-9.6,3.81c-3.41,0.85-7.03,1.27-10.87,1.27
			c-11.1,0-20.15-3.53-27.14-10.6c-6.99-7.07-10.49-16.23-10.49-27.48c0-11.4,3.62-20.6,10.87-27.59
			c7.24-6.99,16.71-10.49,28.41-10.49c3.68,0,7.07,0.36,10.16,1.08c3.09,0.72,5.97,1.83,8.66,3.32V110.56z"/>
		<path class="st51" d="M935.46,161.18V45.44h15.23v56.53c3.24-4.88,7.04-8.44,11.42-10.68c4.38-2.24,9.71-3.36,15.98-3.36
			c5.28,0,9.77,0.83,13.48,2.5c3.71,1.67,6.61,4.14,8.7,7.43c1.24,1.94,2.14,4.21,2.69,6.79c0.55,2.59,0.82,7.12,0.82,13.59v42.94
			h-16.35v-36.37c0-9.31-1.13-15.49-3.4-18.56c-2.27-3.06-6.29-4.59-12.06-4.59c-3.78,0-7.16,0.7-10.12,2.09
			c-2.96,1.39-5.29,3.36-6.98,5.9c-1.2,1.69-2.03,3.87-2.5,6.53c-0.47,2.66-0.71,6.91-0.71,12.73v32.26H935.46z"/>
	</g>
</g>
</svg>
